<svg xmlns="http://www.w3.org/2000/svg" version="1.1" xmlns:xlink="http://www.w3.org/1999/xlink" xmlns:svgjs="http://svgjs.dev/svgjs" width="1000" height="1000"><style>
    #light-icon {
      display: inline;
    }
    #dark-icon {
      display: none;
    }

    @media (prefers-color-scheme: dark) {
      #light-icon {
        display: none;
      }
      #dark-icon {
        display: inline;
      }
    }
  </style><g id="light-icon"><svg xmlns="http://www.w3.org/2000/svg" version="1.1" xmlns:xlink="http://www.w3.org/1999/xlink" xmlns:svgjs="http://svgjs.dev/svgjs" width="1000" height="1000"><g><g transform="matrix(30.303030303030305,0,0,30.303030303030305,0,0)"><svg xmlns="http://www.w3.org/2000/svg" version="1.1" xmlns:xlink="http://www.w3.org/1999/xlink" xmlns:svgjs="http://svgjs.dev/svgjs" width="33" height="33"><svg id="Layer_1" data-name="Layer 1" xmlns="http://www.w3.org/2000/svg" viewBox="0 0 33 33"><path d="M399.88,413.15c-11.9-.14-13-10.8-13-10.91a.15.15,0,0,1,.12-.16h0a.14.14,0,0,1,.14.09,15.12,15.12,0,0,0,1.28,2.66,11.58,11.58,0,0,1,.32-11.71.16.16,0,0,1,.13-.06l.08,0a.16.16,0,0,1,.05.2c-1.81,3.41.11,6.84,1.41,8.57a10.79,10.79,0,0,1-1-7.48,12.88,12.88,0,0,1,5.33-7.15.12.12,0,0,1,.08,0,.13.13,0,0,1,.12.06.16.16,0,0,1,0,.21,5.27,5.27,0,0,0-2.27,3.77c-.34,3.48,2.84,7,2.88,7.07a.15.15,0,0,1,0,.17c-1.5,2.77-1.87,5.34-1.1,7.65a10.23,10.23,0,0,0,4.8,5.39l.11-4.34L397.58,409a.15.15,0,0,1-.11,0l-.09,0a.14.14,0,0,1,0-.19l1.31-2.56-3.43-.5a.15.15,0,0,1-.13-.15.15.15,0,0,1,.13-.14l3.45-.51-1.11-3a.17.17,0,0,1,.08-.19h.06a.16.16,0,0,1,.13.06l1.56,2.28.44-17.06a.16.16,0,0,1,.15-.15h0a.15.15,0,0,1,.15.14c0,.11.31,11.64.45,17.07l1.56-2.28a.16.16,0,0,1,.13-.06h.06a.17.17,0,0,1,.08.19L401.3,405l3.45.5a.15.15,0,0,1,.13.15.15.15,0,0,1-.13.14l-3.43.5,1.31,2.57a.14.14,0,0,1-.05.19.11.11,0,0,1-.08,0,.15.15,0,0,1-.11,0l-1.73-1.82c.07,2.67.1,3.88.11,4.34a10.23,10.23,0,0,0,4.8-5.39c.77-2.31.4-4.88-1.1-7.64a.17.17,0,0,1,0-.18s3.21-3.58,2.88-7.06a5.29,5.29,0,0,0-2.27-3.78.14.14,0,0,1,0-.2.12.12,0,0,1,.12-.07l.08,0a13,13,0,0,1,5.33,7.16,10.81,10.81,0,0,1-1,7.47c1.29-1.72,3.22-5.15,1.41-8.57a.16.16,0,0,1,0-.2l.08,0a.13.13,0,0,1,.12.06,11.53,11.53,0,0,1,.27,11.81,14.67,14.67,0,0,0,1.37-2.76.16.16,0,0,1,.14-.09h0a.15.15,0,0,1,.12.16c0,.11-1.14,10.77-13,10.91h-.24Z" transform="translate(-383.5 -383.5)"></path><path d="M400,416.5A16.5,16.5,0,1,1,416.5,400,16.52,16.52,0,0,1,400,416.5Zm0-32A15.5,15.5,0,1,0,415.5,400,15.51,15.51,0,0,0,400,384.5Z" transform="translate(-383.5 -383.5)"></path></svg></svg></g></g></svg></g><g id="dark-icon"><svg xmlns="http://www.w3.org/2000/svg" version="1.1" xmlns:xlink="http://www.w3.org/1999/xlink" xmlns:svgjs="http://svgjs.dev/svgjs" width="1000" height="1000"><g clip-path="url(#SvgjsClipPath1109)"><rect width="1000" height="1000" fill="#ffffff"></rect><g transform="matrix(30.303030303030305,0,0,30.303030303030305,0,0)"><svg xmlns="http://www.w3.org/2000/svg" version="1.1" xmlns:xlink="http://www.w3.org/1999/xlink" xmlns:svgjs="http://svgjs.dev/svgjs" width="33" height="33"><svg id="Layer_1" data-name="Layer 1" xmlns="http://www.w3.org/2000/svg" viewBox="0 0 33 33"><path d="M399.88,413.15c-11.9-.14-13-10.8-13-10.91a.15.15,0,0,1,.12-.16h0a.14.14,0,0,1,.14.09,15.12,15.12,0,0,0,1.28,2.66,11.58,11.58,0,0,1,.32-11.71.16.16,0,0,1,.13-.06l.08,0a.16.16,0,0,1,.05.2c-1.81,3.41.11,6.84,1.41,8.57a10.79,10.79,0,0,1-1-7.48,12.88,12.88,0,0,1,5.33-7.15.12.12,0,0,1,.08,0,.13.13,0,0,1,.12.06.16.16,0,0,1,0,.21,5.27,5.27,0,0,0-2.27,3.77c-.34,3.48,2.84,7,2.88,7.07a.15.15,0,0,1,0,.17c-1.5,2.77-1.87,5.34-1.1,7.65a10.23,10.23,0,0,0,4.8,5.39l.11-4.34L397.58,409a.15.15,0,0,1-.11,0l-.09,0a.14.14,0,0,1,0-.19l1.31-2.56-3.43-.5a.15.15,0,0,1-.13-.15.15.15,0,0,1,.13-.14l3.45-.51-1.11-3a.17.17,0,0,1,.08-.19h.06a.16.16,0,0,1,.13.06l1.56,2.28.44-17.06a.16.16,0,0,1,.15-.15h0a.15.15,0,0,1,.15.14c0,.11.31,11.64.45,17.07l1.56-2.28a.16.16,0,0,1,.13-.06h.06a.17.17,0,0,1,.08.19L401.3,405l3.45.5a.15.15,0,0,1,.13.15.15.15,0,0,1-.13.14l-3.43.5,1.31,2.57a.14.14,0,0,1-.05.19.11.11,0,0,1-.08,0,.15.15,0,0,1-.11,0l-1.73-1.82c.07,2.67.1,3.88.11,4.34a10.23,10.23,0,0,0,4.8-5.39c.77-2.31.4-4.88-1.1-7.64a.17.17,0,0,1,0-.18s3.21-3.58,2.88-7.06a5.29,5.29,0,0,0-2.27-3.78.14.14,0,0,1,0-.2.12.12,0,0,1,.12-.07l.08,0a13,13,0,0,1,5.33,7.16,10.81,10.81,0,0,1-1,7.47c1.29-1.72,3.22-5.15,1.41-8.57a.16.16,0,0,1,0-.2l.08,0a.13.13,0,0,1,.12.06,11.53,11.53,0,0,1,.27,11.81,14.67,14.67,0,0,0,1.37-2.76.16.16,0,0,1,.14-.09h0a.15.15,0,0,1,.12.16c0,.11-1.14,10.77-13,10.91h-.24Z" transform="translate(-383.5 -383.5)"></path><path d="M400,416.5A16.5,16.5,0,1,1,416.5,400,16.52,16.52,0,0,1,400,416.5Zm0-32A15.5,15.5,0,1,0,415.5,400,15.51,15.51,0,0,0,400,384.5Z" transform="translate(-383.5 -383.5)"></path></svg></svg></g></g><defs><clipPath id="SvgjsClipPath1109"><rect width="1000" height="1000" x="0" y="0" rx="500" ry="500"></rect></clipPath></defs></svg></g></svg>